<svg xmlns="http://www.w3.org/2000/svg" xmlns:xlink="http://www.w3.org/1999/xlink" id="Capa_1" x="0px" y="0px" viewBox="0 0 157.285 31.95" style="enable-background:new 0 0 157.285 31.95;" xml:space="preserve">
<style type="text/css">
	.st0{opacity:0;}
	.st1{clip-path:url(#SVGID_2_);fill:#FFFFFF;}
	.st2{fill:#FF3400;}
	.st3{fill:#2B2828;}
</style>
<g>
	<g class="st0">
		<g>
			<defs>
				<rect id="SVGID_1_" x="0.005" y="0.15" width="157.28" height="31.57"></rect>
			</defs>
			<clipPath id="SVGID_2_">
				<use xlink:href="#SVGID_1_" style="overflow:visible;"></use>
			</clipPath>
			<rect x="0.005" y="0.152" class="st1" width="157.281" height="31.569"></rect>
		</g>
	</g>
	<path class="st2" d="M16.642,0.601c-3.688,0.962-5.896,4.732-4.934,8.419c0.963,3.687,4.732,5.896,8.419,4.934   c3.685-0.962,5.893-4.727,4.936-8.412c-0.959-3.689-4.725-5.901-8.414-4.943C16.647,0.6,16.644,0.601,16.642,0.601"></path>
	<path class="st2" d="M42.113,0C33.29,0,26.138,7.152,26.138,15.975S33.291,31.95,42.113,31.95c8.823,0,15.975-7.152,15.975-15.975   V15.97C58.085,7.15,50.934,0.001,42.113,0 M42.113,23.277c-4.031,0-7.3-3.268-7.3-7.3c0-4.032,3.269-7.3,7.3-7.3   c4.032,0,7.3,3.268,7.3,7.3C49.413,20.009,46.145,23.277,42.113,23.277"></path>
	<path class="st2" d="M6.083,10.613C6.38,8.947,5.271,7.355,3.604,7.057C1.938,6.759,0.346,7.869,0.048,9.535   c-0.297,1.664,0.808,3.254,2.471,3.555c1.667,0.301,3.262-0.806,3.564-2.473C6.083,10.616,6.083,10.614,6.083,10.613"></path>
	<path class="st2" d="M11.578,14.667c-3.036-0.545-5.939,1.474-6.484,4.51c-0.545,3.036,1.474,5.939,4.51,6.484   c3.036,0.546,5.939-1.474,6.484-4.51C16.628,18.116,14.611,15.217,11.578,14.667"></path>
	<path class="st3" d="M87.611,10.429c-0.665,0.342-1.263,0.804-1.762,1.361v-1.724h-3.644V23.14h3.644v-5.66   c-0.053-1.076,0.226-2.141,0.8-3.052c0.554-0.78,1.473-1.217,2.427-1.155h0.707l-0.026-3.424   C89.006,9.872,88.271,10.07,87.611,10.429"></path>
	<path class="st3" d="M100.432,11.158c-0.933-0.857-2.16-1.326-3.428-1.31c-1.666-0.008-3.266,0.648-4.447,1.823   c-1.306,1.276-2.005,3.049-1.92,4.873c-0.079,1.828,0.598,3.607,1.87,4.921c1.139,1.198,2.721,1.875,4.374,1.87   c1.295,0.011,2.553-0.435,3.551-1.26v1.065h3.67V10.066h-3.67V11.158z M99.605,19.24c-0.522,0.644-1.31,1.015-2.139,1.009   c-0.848-0.002-1.654-0.37-2.212-1.009c-0.647-0.711-0.988-1.649-0.948-2.611c-0.034-0.971,0.296-1.92,0.925-2.661   c0.54-0.668,1.353-1.057,2.213-1.056c0.849-0.004,1.651,0.393,2.162,1.071c0.6,0.753,0.91,1.695,0.876,2.657   C100.522,17.586,100.209,18.512,99.605,19.24"></path>
	<path class="st3" d="M140.352,9.849c-1.419,0.018-2.766,0.625-3.719,1.675v-1.457h-3.646V23.14h3.646v-7.291   c-0.061-0.854,0.233-1.694,0.813-2.323c0.505-0.508,1.193-0.791,1.909-0.786c1.475,0,2.212,1,2.212,3.01v7.388h3.642v-7.945   c0.07-1.43-0.432-2.83-1.394-3.89C142.919,10.349,141.661,9.82,140.352,9.849"></path>
	<path class="st3" d="M155.859,16.308c-0.4-0.245-0.819-0.459-1.252-0.641c-0.347-0.135-0.934-0.335-1.765-0.6   c-0.608-0.174-1.201-0.4-1.77-0.676c-0.318-0.141-0.526-0.452-0.536-0.8c0-0.619,0.563-0.925,1.687-0.925   c1.224,0.031,2.408,0.438,3.393,1.165l1.359-2.429c-1.346-0.972-2.956-1.514-4.617-1.555c-1.349-0.059-2.678,0.344-3.767,1.142   c-0.936,0.689-1.479,1.789-1.458,2.951c-0.049,1.117,0.522,2.169,1.484,2.737c0.415,0.267,0.849,0.501,1.301,0.7   c0.381,0.163,0.93,0.359,1.652,0.582c0.582,0.166,1.139,0.412,1.653,0.731c0.322,0.168,0.535,0.487,0.57,0.848   c0.003,0.304-0.154,0.587-0.414,0.744c-0.337,0.201-0.726,0.298-1.118,0.279c-1.588-0.017-3.122-0.574-4.35-1.579l-1.601,2.285   c0.846,0.682,1.809,1.205,2.841,1.542c0.979,0.335,2.005,0.512,3.039,0.522c1.304,0.051,2.583-0.362,3.609-1.167   c0.937-0.751,1.464-1.9,1.422-3.1C157.312,17.964,156.789,16.904,155.859,16.308"></path>
	<path class="st3" d="M76.806,15.971c0.05,0.78-0.183,1.552-0.656,2.174c-0.495,0.535-1.206,0.817-1.933,0.767   c-0.7,0.072-1.385-0.233-1.8-0.8c-0.417-0.852-0.597-1.801-0.522-2.746v-5.3h-3.67v6.464c0,3.758,1.759,5.637,5.276,5.637   c1.24,0.017,2.454-0.356,3.471-1.067c0.017,0.145,0.025,0.291,0.025,0.438c0.037,0.94-0.255,1.863-0.826,2.611   c-0.529,0.677-1.351,1.061-2.21,1.032c-0.877,0.007-1.71-0.382-2.266-1.059l-2.153,2.584c0.186,0.169,0.384,0.326,0.591,0.468   c1.149,0.757,2.501,1.147,3.876,1.118c1.755,0.057,3.449-0.641,4.653-1.918c1.28-1.479,1.929-3.398,1.812-5.349V10.039h-3.669   L76.806,15.971z"></path>
	<path class="st3" d="M115.623,19.286c-1.397,1.546-3.785,1.667-5.331,0.269c-1.547-1.399-1.667-3.786-0.269-5.332   c1.398-1.547,3.786-1.667,5.331-0.269c0.053,0.047,0.104,0.096,0.154,0.146c0.376-1.057,0.994-2.012,1.805-2.787   c-1.018-0.844-2.256-1.381-3.569-1.548c-3.855-0.498-7.384,2.224-7.882,6.08c-0.498,3.855,2.224,7.384,6.079,7.882   c2.026,0.262,4.064-0.369,5.587-1.728C116.694,21.252,116.042,20.324,115.623,19.286"></path>
	<path class="st3" d="M124.289,9.601c-3.887,0-7.039,3.151-7.039,7.038c-0.001,3.887,3.15,7.039,7.037,7.04   c3.888,0.001,7.04-3.151,7.04-7.038v-0.002C131.322,12.754,128.175,9.606,124.289,9.601 M124.289,20.401   c-2.079,0.002-3.767-1.682-3.769-3.761s1.682-3.767,3.761-3.769c2.08-0.002,3.767,1.682,3.77,3.761v0.007   c-0.003,2.077-1.685,3.76-3.762,3.765V20.401z"></path>
	<rect x="62.753" y="5.457" class="st3" width="3.789" height="17.683"></rect>
</g>
</svg>